# xmcd
#
# Track frame offsets:
#	150
#	15934
#	37549
#	54036
#	73503
#	90856
#	111236
#	126439
#	144854
#	160036
#	172222
#
# Disc length: 2637 seconds
# Revision: 0
# Processed by: cddbd v1.5.2PL0 Copyright (c) Steve Scherf et al.
# Submitted via: dBpowerAMP V12.0
#
DISCID=790a4b0b
DTITLE=Fiona Boyes - Box and Dice
DYEAR=2015
DGENRE=Blues
TTITLE0=Juke Joint On Moses Lane
TTITLE1=I'm A Stranger Here
TTITLE2=Walking Round Money
TTITLE3=Smokestack Lightning
TTITLE4=Louisiana
TTITLE5=Black Mountain Blues
TTITLE6=Mama's Sanctified Amp
TTITLE7=I Done Quit
TTITLE8=Walk With Me
TTITLE9=Tiny Pinch Of Sin
TTITLE10=Easy Baby
EXTD=
EXTT0=
EXTT1=
EXTT2=
EXTT3=
EXTT4=
EXTT5=
EXTT6=
EXTT7=
EXTT8=
EXTT9=
EXTT10=
PLAYORDER=
